<svg width="25" height="25" viewBox="0 0 25 25" fill="none" xmlns="http://www.w3.org/2000/svg">
<mask id="mask0_317_111" style="mask-type:alpha" x="0" y="0" width="25" height="25">
<circle cx="12.5" cy="12.5" r="12.5" fill="#C4C4C4"/>
</mask>
<g mask="url(#mask0_317_111)">
<circle cx="12.5" cy="12.5" r="12.5" fill="#30A2B2"/>
<path fill-rule="evenodd" clip-rule="evenodd" d="M-9.42579 2.57075C-5.80181 2.53494 -2.59186 6.4106 1.06894 7.62206C1.89828 7.89651 2.57965 7.19755 3.14155 6.72964C4.23142 5.82207 4.74754 4.42837 5.9062 3.59392C7.97846 2.10151 9.97104 -1.6524 12.6611 -0.126172C15.2753 1.35708 13.6083 5.21325 13.096 7.67314C12.713 9.51187 10.0607 10.2435 10.0955 12.1919C10.1155 13.3142 12.8382 13.3314 13.2172 14.4653C13.5311 15.4045 11.1187 15.4829 11.5055 16.4109C12.8949 19.7446 18.7127 22.5223 17.8567 25.5974C17.2035 27.9441 12.5317 23.458 9.89634 22.192C8.54737 21.544 7.26914 19.5069 6.03768 19.9198C3.78794 20.6742 3.8657 24.0569 1.69326 24.9426C-0.262993 25.7401 -4.68234 26.6749 -5.17842 24.4925C-6.01999 20.79 1.77575 18.8992 -0.455791 15.4879C-2.74089 11.9948 -9.0234 15.8635 -12.4959 13.3066C-14.3849 11.9157 -11.5094 9.60324 -10.9769 7.7411C-10.4772 5.99369 -11.4464 2.59072 -9.42579 2.57075Z" fill="#8130B2"/>
<path fill-rule="evenodd" clip-rule="evenodd" d="M14.545 18.2887C13.8766 16.7953 15.7343 14.5271 14.5276 13.4222C13.1215 12.1347 10.1193 14.5266 8.86655 13.0895C7.89508 11.9751 10.9718 10.6026 10.7906 9.13536C10.5683 7.33506 7.62278 6.43298 7.82183 4.62996C7.98979 3.10864 10.1815 2.68773 11.5729 2.05005C12.7639 1.50419 14.1223 1.57225 15.3695 1.17085C16.4686 0.81713 17.476 0.297683 18.5239 -0.187076C19.9524 -0.847934 21.7387 -3.45549 22.7336 -2.23584C24.2495 -0.377708 21.1843 3.01531 22.6712 4.89669C23.7524 6.26473 26.5157 3.01609 27.8088 4.18582C28.8639 5.14022 26.7262 6.77851 26.2225 8.10905C25.9153 8.92046 25.0433 9.76241 25.3977 10.5544C26.3686 12.7244 31.7657 14.7636 29.7945 16.0925C27.4179 17.6948 24.7168 12.5279 21.8785 12.9269C20.4188 13.1321 21.9967 15.9546 21.3507 17.2796C20.6034 18.8125 19.6172 20.7754 17.9303 21.0255C16.4826 21.2401 15.1428 19.6246 14.545 18.2887Z" fill="#339933"/>
<path fill-rule="evenodd" clip-rule="evenodd" d="M5.20204 16.9574C5.21734 15.3275 4.12113 12.4212 5.73805 12.1483C7.95882 11.7735 9.26231 16.7137 11.3589 15.9181C13.7776 15.0004 12.2113 10.3354 14.3392 8.88477C15.6595 7.9847 17.3705 10.0157 18.7522 10.8779C20.0798 11.7065 21.4073 12.5998 22.3198 13.8651C23.2095 15.0988 24.0823 16.5753 23.9363 18.0667C23.7793 19.6707 22.3245 20.7939 21.5065 22.1742C20.9862 23.0522 20.6629 24.0469 19.9558 24.784C19.3224 25.4443 17.9342 25.3518 17.6301 26.215C17.0663 27.8152 19.3853 31.2611 17.6642 31.2888C15.4762 31.324 15.5852 25.825 13.4548 26.2822C10.9308 26.824 12.1768 31.876 9.85059 32.9658C8.48334 33.6064 7.67448 30.5559 7.55066 29.0484C7.41159 27.3554 10.567 25.2504 9.13776 24.2876C6.61513 22.5882 2.18126 26.3174 0.148245 24.0616C-1.36334 22.3844 4.37848 22.231 5.66032 20.429C6.33655 19.4785 5.19102 18.1311 5.20204 16.9574Z" fill="#36DC83" fill-opacity="0.7"/>
</g>
</svg>
