<svg width="20" height="20" viewBox="0 0 20 20" fill="none" xmlns="http://www.w3.org/2000/svg">
<mask id="mask0_10_148" style="mask-type:alpha" x="0" y="0" width="20" height="20">
<circle cx="10" cy="10" r="10" fill="#36DC83"/>
</mask>
<g mask="url(#mask0_10_148)">
<circle cx="10" cy="10" r="10" fill="#8130B3"/>
<path fill-rule="evenodd" clip-rule="evenodd" d="M18.0413 5.08666C20.163 5.86657 16.4199 9.27976 16.8819 11.468C17.2309 13.121 20.1473 13.5409 20.1813 15.222C20.2133 16.8067 18.1576 17.4786 17.0254 18.5705C15.6884 19.8599 14.824 21.9191 12.9616 22.1847C11.0708 22.4543 8.9425 21.4375 7.79786 19.8864C6.72024 18.4261 8.30923 14.672 7.79786 12.9448C7.34089 11.4014 3.888 13.0597 3.70087 11.468C3.45748 9.39787 -4.65395 4.66225 5.99353 3.11906C8.75455 2.86476 8.45442 4.50918 11.2339 4.61917C13.7673 4.71941 15.6477 4.20675 18.0413 5.08666Z" fill="#4981BB"/>
</g>
</svg>
