<svg width="25" height="25" viewBox="0 0 25 25" fill="none" xmlns="http://www.w3.org/2000/svg">
<mask id="mask0_318_116" style="mask-type:alpha" x="0" y="0" width="25" height="25">
<circle cx="12.5" cy="12.5" r="12.5" fill="#C4C4C4"/>
</mask>
<g mask="url(#mask0_318_116)">
<circle cx="12.5" cy="12.5" r="12.5" fill="#30B26D"/>
<path fill-rule="evenodd" clip-rule="evenodd" d="M19.7437 7.98721C21.4594 8.12863 23.0958 6.60923 24.7584 7.05724C26.4236 7.50597 27.5711 9.03043 28.6439 10.3855C29.7156 11.7394 31.11 13.2079 30.9931 14.9332C30.8705 16.743 28.5927 17.6855 28.0326 19.4101C27.541 20.9239 29.2344 23.1177 28.0076 24.1268C26.6294 25.2603 24.3932 23.0891 22.7421 23.7614C21.2485 24.3696 21.1904 26.7784 19.7437 27.4918C18.2716 28.2178 16.0409 28.8054 14.8871 27.6351C13.5251 26.2538 15.0471 23.6823 14.244 21.9138C13.6964 20.7078 11.6949 20.6937 11.1805 19.473C10.6761 18.2758 11.364 16.9231 11.6028 15.6455C11.8494 14.327 12.2444 13.0924 12.6145 11.8033C13.1605 9.90217 12.5771 7.12739 14.3162 6.19648C16.0179 5.28556 17.8216 7.82877 19.7437 7.98721Z" fill="#2F78E7"/>
<path fill-rule="evenodd" clip-rule="evenodd" d="M8.25333 30.0624C6.61919 28.7823 7.5306 25.3684 5.48026 24.7858C3.09105 24.1068 0.897646 28.2405 -1.39505 27.3206C-3.17294 26.6072 -0.314788 23.5425 -1.35873 22.0416C-2.63963 20.2001 -6.6293 20.7272 -7.41398 18.6672C-8.07606 16.9289 -5.7252 15.3505 -4.44229 13.9461C-3.34409 12.7439 -1.701 12.1229 -0.454785 11.0489C0.643419 10.1025 1.53966 9.0229 2.50329 7.96031C3.817 6.51172 4.45212 2.76585 6.31729 3.58147C9.1589 4.82409 7.45724 10.0774 10.2778 11.36C12.3287 12.2927 13.7554 7.35072 15.9446 7.95959C17.7307 8.45639 16.1322 11.3293 16.2897 13.0322C16.3858 14.0706 15.832 15.4311 16.6985 16.11C19.0728 17.9701 26.6016 17.4238 25.0247 19.8756C23.1236 22.8316 17.0105 18.6017 13.8834 20.4872C12.2752 21.4568 15.7355 23.7151 15.7219 25.4846C15.7062 27.5319 15.6514 30.1682 13.8002 31.3029C12.2115 32.2767 9.71509 31.2074 8.25333 30.0624Z" fill="#E79D2F"/>
<path fill-rule="evenodd" clip-rule="evenodd" d="M2.88564 3.36084C4.54014 3.51413 5.54609 0.566086 7.17184 0.912636C8.60521 1.21818 8.25752 3.70518 9.31471 4.73128C10.5902 5.96926 13.1748 5.73331 13.844 7.38862C14.4704 8.93804 13.0584 10.6093 12.2907 12.0922C11.6349 13.3588 10.4299 14.1931 9.69028 15.4114C8.83595 16.8187 9.0758 19.1217 7.59785 19.8222C6.11351 20.5258 4.49815 18.9343 2.88564 18.6368C1.56638 18.3934 -0.106525 19.1719 -1.06593 18.2238C-2.13502 17.1672 -0.825438 14.8108 -1.96973 13.8383C-3.54638 12.4983 -7.13384 14.3444 -7.90399 12.412C-8.60092 10.6633 -5.31326 9.78557 -4.18209 8.28729C-3.52773 7.42057 -2.95401 6.4989 -2.64973 5.45254C-2.13746 3.69095 -3.4958 0.72415 -1.79593 0.0818034C0.00457063 -0.598565 0.971723 3.18352 2.88564 3.36084Z" fill="#6F2FE7" fill-opacity="0.6"/>
<path fill-rule="evenodd" clip-rule="evenodd" d="M19.728 -2.98766C21.0777 -2.79993 21.4415 -0.850747 22.6279 -0.180758C23.7098 0.430233 25.4353 -0.299908 26.2088 0.67224C26.9827 1.64487 25.7919 3.19269 26.2356 4.35359C26.7817 5.78241 29.1649 6.43194 28.9909 7.95156C28.8268 9.38468 26.4068 9.3177 25.5355 10.4676C24.6325 11.6594 25.2472 13.8577 23.9509 14.6034C22.6937 15.3267 21.0885 14.3114 19.728 13.8083C18.6256 13.4007 17.8524 12.4386 16.7823 11.9524C15.6831 11.453 14.436 11.4613 13.3594 10.9149C11.9099 10.1794 10.1406 9.63639 9.38422 8.19816C8.64509 6.79271 9.14476 5.05181 9.45725 3.49504C9.77453 1.91434 9.86898 -0.0626357 11.2193 -0.944274C12.687 -1.90253 14.707 -0.636066 16.4116 -1.04542C17.6732 -1.3484 18.4429 -3.16642 19.728 -2.98766Z" fill="#2FE741" fill-opacity="0.8"/>
</g>
</svg>
