<svg width="16" height="14" viewBox="0 0 16 14" fill="black" fill-opacity="0.4"
     xmlns="http://www.w3.org/2000/svg">
    <path fill-rule="evenodd" clip-rule="evenodd"
          d="M15.6935 7.41109C15.7843 7.37234 15.8618 7.30778 15.9163 7.22542C15.9707 7.14307 15.9999 7.04653 16 6.94779C16.0001 6.84904 15.9713 6.75242 15.917 6.66991C15.8628 6.58741 15.7855 6.52264 15.6948 6.48363L1.17383 0.23665L1.17312 0.235936L0.7225 0.041257C0.637113 0.00442461 0.543206 -0.0080889 0.451153 0.00509856C0.359099 0.018286 0.272483 0.0566614 0.20087 0.115985C0.129258 0.17531 0.0754368 0.253274 0.0453523 0.341266C0.0152677 0.429258 0.0100906 0.523853 0.0303926 0.614603L0.136741 1.09275L0.136025 1.09489L1.42421 6.92751L0.119805 12.7565L0.119801 12.7594L0.0121223 13.2372C-0.00810421 13.3278 -0.00294345 13.4222 0.0270363 13.5101C0.057016 13.5979 0.110653 13.6758 0.182042 13.7351C0.253431 13.7945 0.339804 13.8329 0.431655 13.8463C0.523506 13.8597 0.617273 13.8475 0.702634 13.8111L15.6935 7.41109ZM13.0374 7.44806L14.2145 6.9453L13.0388 6.43927L2.34594 6.4244L2.43314 6.81905C2.44919 6.89143 2.44909 6.96645 2.43284 7.03878L2.34454 7.43319L13.0374 7.44806Z"/>
</svg>