<svg width="16" height="14" viewBox="0 0 12 11" fill="none" xmlns="http://www.w3.org/2000/svg">
    <path fill-rule="evenodd" clip-rule="evenodd"
        d="M11.7701 5.86395C11.8382 5.83489 11.8963 5.78647 11.9372 5.7247C11.9781 5.66294 11.9999 5.59053 12 5.51647C12.0001 5.44241 11.9785 5.36995 11.9378 5.30807C11.8971 5.24619 11.8391 5.19761 11.7711 5.16836L0.880371 0.483121L0.879836 0.482585L0.541875 0.336576C0.477835 0.308952 0.407404 0.299567 0.338364 0.309457C0.269325 0.319348 0.204362 0.34813 0.150653 0.392623C0.0969435 0.437116 0.0565776 0.495589 0.0340142 0.561583C0.0114507 0.627577 0.00756794 0.698523 0.0227944 0.766586L0.102556 1.12519L0.102019 1.1268L1.06816 5.50127L0.0898535 9.87303L0.0898505 9.87518L0.00909171 10.2336C-0.00607816 10.3015 -0.00220759 10.3723 0.0202772 10.4382C0.042762 10.5041 0.0829895 10.5625 0.136531 10.607C0.190073 10.6515 0.254853 10.6803 0.323742 10.6904C0.39263 10.7004 0.462955 10.6913 0.526976 10.6639L11.7701 5.86395ZM9.77802 5.89168L10.6609 5.51461L9.77907 5.13509L1.75946 5.12394L1.82486 5.41992C1.83689 5.4742 1.83681 5.53047 1.82463 5.58472L1.7584 5.88052L9.77802 5.89168Z"
        fill="black" fill-opacity="0.4" />
</svg>